<svg width="27" height="27" viewBox="0 0 27 27" fill="none" xmlns="http://www.w3.org/2000/svg">
<path d="M13.5 27C11.0566 27 8.79785 26.3979 6.72363 25.1938C4.64941 23.9897 3.01025 22.3506 1.80615 20.2764C0.602051 18.2021 0 15.9434 0 13.5C0 11.0566 0.602051 8.79785 1.80615 6.72363C3.01025 4.64941 4.64941 3.01025 6.72363 1.80615C8.79785 0.602051 11.0566 0 13.5 0C15.4688 0 16.8047 0.241699 17.5078 0.725098C18.2109 1.2085 18.5625 2.0918 18.5625 3.375C18.5625 3.9375 18.4307 4.47363 18.167 4.9834C17.9033 5.49316 17.6133 5.90625 17.2969 6.22266C16.9805 6.53906 16.6904 6.89502 16.4268 7.29053C16.1631 7.68604 16.0312 8.06836 16.0312 8.4375C16.0312 10.125 16.875 10.9688 18.5625 10.9688C18.9316 10.9688 19.314 10.8369 19.7095 10.5732C20.105 10.3096 20.4609 10.0195 20.7773 9.70312C21.0938 9.38672 21.5068 9.09668 22.0166 8.83301C22.5264 8.56934 23.0625 8.4375 23.625 8.4375C24.8906 8.4375 25.7695 8.79785 26.2617 9.51855C26.7539 10.2393 27 11.5664 27 13.5C27 15.3281 26.644 17.0771 25.9321 18.7471C25.2202 20.417 24.2622 21.854 23.0581 23.0581C21.854 24.2622 20.417 25.2202 18.7471 25.9321C17.0771 26.644 15.3281 27 13.5 27ZM7.59375 21.9375C8.29688 21.9375 8.89453 21.6914 9.38672 21.1992C9.87891 20.707 10.125 20.1094 10.125 19.4062C10.125 18.7031 9.87891 18.1055 9.38672 17.6133C8.89453 17.1211 8.29688 16.875 7.59375 16.875C6.89062 16.875 6.29297 17.1211 5.80078 17.6133C5.30859 18.1055 5.0625 18.7031 5.0625 19.4062C5.0625 20.1094 5.30859 20.707 5.80078 21.1992C6.29297 21.6914 6.89062 21.9375 7.59375 21.9375ZM5.90625 8.4375C5.20312 8.4375 4.60547 8.68359 4.11328 9.17578C3.62109 9.66797 3.375 10.2656 3.375 10.9688C3.375 11.6719 3.62109 12.2695 4.11328 12.7617C4.60547 13.2539 5.20312 13.5 5.90625 13.5C6.60938 13.5 7.20703 13.2539 7.69922 12.7617C8.19141 12.2695 8.4375 11.6719 8.4375 10.9688C8.4375 10.2656 8.19141 9.66797 7.69922 9.17578C7.20703 8.68359 6.60938 8.4375 5.90625 8.4375ZM10.9688 3.375C10.2656 3.375 9.66797 3.62109 9.17578 4.11328C8.68359 4.60547 8.4375 5.20312 8.4375 5.90625C8.4375 6.60938 8.68359 7.20703 9.17578 7.69922C9.66797 8.19141 10.2656 8.4375 10.9688 8.4375C11.6719 8.4375 12.2695 8.19141 12.7617 7.69922C13.2539 7.20703 13.5 6.60938 13.5 5.90625C13.5 5.20312 13.2539 4.60547 12.7617 4.11328C12.2695 3.62109 11.6719 3.375 10.9688 3.375ZM16.0312 18.5625C15.3281 18.5625 14.7305 18.8086 14.2383 19.3008C13.7461 19.793 13.5 20.3906 13.5 21.0938C13.5 21.7969 13.7461 22.3945 14.2383 22.8867C14.7305 23.3789 15.3281 23.625 16.0312 23.625C16.7344 23.625 17.332 23.3789 17.8242 22.8867C18.3164 22.3945 18.5625 21.7969 18.5625 21.0938C18.5625 20.3906 18.3164 19.793 17.8242 19.3008C17.332 18.8086 16.7344 18.5625 16.0312 18.5625ZM21.0938 13.5C20.3906 13.5 19.793 13.7461 19.3008 14.2383C18.8086 14.7305 18.5625 15.3281 18.5625 16.0312C18.5625 16.7344 18.8086 17.332 19.3008 17.8242C19.793 18.3164 20.3906 18.5625 21.0938 18.5625C21.7969 18.5625 22.3945 18.3164 22.8867 17.8242C23.3789 17.332 23.625 16.7344 23.625 16.0312C23.625 15.3281 23.3789 14.7305 22.8867 14.2383C22.3945 13.7461 21.7969 13.5 21.0938 13.5Z" fill="white"/>
</svg>
