<svg width="27" height="26" viewBox="0 0 27 26" fill="none" xmlns="http://www.w3.org/2000/svg">
<path d="M6.75 23.8332H23.625V21.6665H6.7635C6.24375 21.6535 5.625 21.4553 5.625 20.5832C5.625 19.7111 6.24375 19.5128 6.7635 19.4998H23.625V4.33317C23.625 3.13825 22.6159 2.1665 21.375 2.1665H6.75C5.39325 2.1665 3.375 3.03209 3.375 5.4165V20.5832C3.375 22.9676 5.39325 23.8332 6.75 23.8332ZM5.625 8.6665V5.4165C5.625 4.54442 6.24375 4.34617 6.75 4.33317H21.375V17.3332H5.625V8.6665Z" fill="white"/>
<path d="M12.375 15.1667H14.625V10.8333H16.875V8.66667H14.625V6.5H12.375V8.66667H10.125V10.8333H12.375V15.1667Z" fill="white"/>
</svg>
