<svg width="28" height="28" viewBox="0 0 28 28" fill="none" xmlns="http://www.w3.org/2000/svg">
<path d="M12.8333 13.9998V20.9998H15.1667V13.9998H12.8333ZM17.5 20.9998H23.3333C23.9522 20.9998 24.5457 21.2457 24.9833 21.6833C25.4208 22.1208 25.6667 22.7143 25.6667 23.3332V24.4998C25.6667 25.1187 25.4208 25.7122 24.9833 26.1498C24.5457 26.5873 23.9522 26.8332 23.3333 26.8332H4.66668C4.04784 26.8332 3.45435 26.5873 3.01676 26.1498C2.57918 25.7122 2.33334 25.1187 2.33334 24.4998V23.3332C2.33334 22.7143 2.57918 22.1208 3.01676 21.6833C3.45435 21.2457 4.04784 20.9998 4.66668 20.9998H10.5V11.6665H17.5V20.9998ZM4.66668 23.3332V24.4998H23.3333V23.3332H4.66668ZM14 10.9665C13.0718 10.9665 12.1815 10.5978 11.5251 9.94138C10.8688 9.285 10.5 8.39476 10.5 7.4665C10.5 6.17734 11.6667 4.07734 14 1.1665C16.3333 4.07734 17.5 6.17734 17.5 7.4665C17.5 8.39476 17.1313 9.285 16.4749 9.94138C15.8185 10.5978 14.9283 10.9665 14 10.9665V10.9665ZM14 8.68917C14.644 8.68917 15.1667 8.12917 15.1667 7.5225C15.1667 6.97884 14.7782 6.22867 14 5.18917C13.2218 6.22867 12.8333 6.97884 12.8333 7.5225C12.8333 8.12917 13.356 8.68917 14 8.68917Z" fill="white"/>
</svg>
