<svg width="24" height="20" viewBox="0 0 24 20" fill="none" xmlns="http://www.w3.org/2000/svg">
<path d="M9.49969 0.666504V2.2765C8.53135 1.8915 7.49302 1.69317 6.45469 1.69317C4.36635 1.69317 2.27802 2.4865 0.679688 4.08484L4.56469 7.96984H5.85969V9.26484C6.86302 10.2682 8.16969 10.7932 9.48802 10.8515V13.4998H5.99969V16.9998C5.99969 18.2832 7.04969 19.3332 8.33302 19.3332H19.9997C21.9364 19.3332 23.4997 17.7698 23.4997 15.8332V0.666504H9.49969ZM8.20469 8.14484V5.6365H5.54469L4.33135 4.42317C5.00878 4.16174 5.72856 4.02728 6.45469 4.0265C8.01802 4.0265 9.47635 4.63317 10.5847 5.72984L12.2297 7.37484L11.9964 7.60817C11.7032 7.90412 11.3543 8.13899 10.9698 8.2992C10.5853 8.4594 10.1729 8.54176 9.75635 8.5415C9.20802 8.5415 8.67135 8.4015 8.20469 8.14484ZM21.1664 15.8332C21.1664 16.4748 20.6414 16.9998 19.9997 16.9998C19.358 16.9998 18.833 16.4748 18.833 15.8332V13.4998H11.833V10.4782C12.498 10.2098 13.1164 9.81317 13.653 9.2765L13.8864 9.04317L17.188 12.3332H18.833V10.6882L11.833 3.72317V2.99984H21.1664V15.8332Z" fill="white"/>
</svg>
