<svg width="24" height="24" viewBox="0 0 24 24" fill="none" xmlns="http://www.w3.org/2000/svg">
<path d="M23.0212 14.456L18.9997 12.4458V12.0002C18.9996 11.7989 18.9475 11.601 18.8484 11.4258C18.7492 11.2506 18.6064 11.104 18.4338 11.0003L13.1663 7.83983V5.00016H15.4997V2.66683H13.1663V0.333496H10.833V2.66683H8.49967V5.00016H10.833V7.83983L5.56551 11.0003C5.39295 11.104 5.25015 11.2506 5.15099 11.4258C5.05184 11.601 4.99971 11.7989 4.99967 12.0002V12.4458L0.978175 14.4572C0.784243 14.5538 0.621114 14.7026 0.507137 14.8868C0.393159 15.0711 0.332855 15.2835 0.333008 15.5002V22.5002C0.333008 22.8096 0.455924 23.1063 0.674717 23.3251C0.893509 23.5439 1.19026 23.6668 1.49967 23.6668H22.4997C22.8091 23.6668 23.1058 23.5439 23.3246 23.3251C23.5434 23.1063 23.6663 22.8096 23.6663 22.5002V15.5002C23.6663 15.058 23.4167 14.6543 23.0212 14.456ZM2.66634 16.2212L4.99967 15.0545V21.3335H2.66634V16.2212ZM11.9997 15.5002C11.3808 15.5002 10.7873 15.746 10.3498 16.1836C9.91217 16.6212 9.66634 17.2147 9.66634 17.8335V21.3335H7.33301V12.6605L11.9997 9.8605L16.6663 12.6605V21.3335H14.333V17.8335C14.333 17.2147 14.0872 16.6212 13.6496 16.1836C13.212 15.746 12.6185 15.5002 11.9997 15.5002ZM21.333 21.3335H18.9997V15.0545L21.333 16.2212V21.3335Z" fill="white"/>
</svg>
